<svg width="64" height="64" viewBox="0 0 64 64" fill="none" xmlns="http://www.w3.org/2000/svg">
<g id="Icon">
<g id="Border" opacity="0.06">
<rect id="Shape" width="64" height="64" rx="16" fill="#1565D8"/>
</g>
<g id="Icon_Application">
<path id="Path" fill-rule="evenodd" clip-rule="evenodd" d="M17.6 15.2H27.2C28.5255 15.2 29.6 16.2745 29.6 17.6V27.2C29.6 28.5254 28.5255 29.6 27.2 29.6H17.6C16.2745 29.6 15.2 28.5254 15.2 27.2V17.6C15.2 16.2745 16.2745 15.2 17.6 15.2ZM36.8 34.4H46.4C47.7255 34.4 48.8 35.4745 48.8 36.8V46.4C48.8 47.7254 47.7255 48.8 46.4 48.8H36.8C35.4745 48.8 34.4 47.7254 34.4 46.4V36.8C34.4 35.4745 35.4745 34.4 36.8 34.4Z" fill="#1565D8"/>
<path id="Path_2" opacity="0.3" fill-rule="evenodd" clip-rule="evenodd" d="M36.8 15.2H46.4C47.7255 15.2 48.8 16.2745 48.8 17.6V27.2C48.8 28.5254 47.7255 29.6 46.4 29.6H36.8C35.4745 29.6 34.4 28.5254 34.4 27.2V17.6C34.4 16.2745 35.4745 15.2 36.8 15.2ZM17.6 34.4H27.2C28.5255 34.4 29.6 35.4745 29.6 36.8V46.4C29.6 47.7254 28.5255 48.8 27.2 48.8H17.6C16.2745 48.8 15.2 47.7254 15.2 46.4V36.8C15.2 35.4745 16.2745 34.4 17.6 34.4Z" fill="#1565D8"/>
</g>
</g>
</svg>
