<svg width="40" height="40" viewBox="0 0 40 40" fill="none" xmlns="http://www.w3.org/2000/svg">
<path d="M35.47 18.0901H30.92C28.4071 18.0901 26.37 20.1272 26.37 22.6401C26.37 25.153 28.4071 27.1901 30.92 27.1901H35.47V29.9201C35.47 32.433 33.4329 34.4701 30.92 34.4701H5.44C3.93226 34.4701 2.71 33.2478 2.71 31.7401V11.7201C2.71 11.2175 3.11742 10.8101 3.62 10.8101H30.92C33.4329 10.8101 35.47 12.8472 35.47 15.3601V18.0901V17.5586V18.0901Z" fill="#1565D8"/>
<path fill-rule="evenodd" clip-rule="evenodd" d="M31.7495 9.04362C31.3489 6.94017 29.5001 5.3501 27.28 5.3501H7.26C5.01202 5.3501 3.14481 6.98032 2.77609 9.12303C3.04185 9.03674 3.32548 8.9901 3.62 8.9901H30.92C31.2011 8.9901 31.478 9.00831 31.7495 9.04362ZM30.92 25.3701H37.29V19.9101H30.92C29.4123 19.9101 28.19 21.1324 28.19 22.6401C28.19 24.1478 29.4123 25.3701 30.92 25.3701Z" fill="#B4CCEF"/>
</svg>
