<svg width="40" height="40" viewBox="0 0 40 40" fill="none" xmlns="http://www.w3.org/2000/svg">
<path d="M25.5556 27.1427V34.2856C25.5556 35.6006 24.4896 36.6666 23.1746 36.6666H5.7143C4.39933 36.6666 3.33334 35.6006 3.33334 34.2856V16.8253C3.33334 15.5103 4.39933 14.4443 5.7143 14.4443H12.8572V23.1745C12.8572 25.3661 14.6338 27.1427 16.8254 27.1427H25.5556Z" fill="#B4CCEF"/>
<path d="M16.8254 3.33325H34.2857C35.6007 3.33325 36.6667 4.39924 36.6667 5.7142V23.1745C36.6667 24.4895 35.6007 25.5555 34.2857 25.5555H16.8254C15.5104 25.5555 14.4445 24.4895 14.4445 23.1745V5.7142C14.4445 4.39924 15.5104 3.33325 16.8254 3.33325Z" fill="#1565D8"/>
</svg>
