<svg width="48" height="48" viewBox="0 0 48 48" fill="none" xmlns="http://www.w3.org/2000/svg">
<g opacity="0.06">
<rect width="48" height="48" rx="8" fill="#1565D8"/>
</g>
<path fill-rule="evenodd" clip-rule="evenodd" d="M12.48 10.56H20.16C21.2204 10.56 22.08 11.4196 22.08 12.48V20.16C22.08 21.2204 21.2204 22.08 20.16 22.08H12.48C11.4196 22.08 10.56 21.2204 10.56 20.16V12.48C10.56 11.4196 11.4196 10.56 12.48 10.56ZM27.84 25.92H35.52C36.5804 25.92 37.44 26.7796 37.44 27.84V35.52C37.44 36.5804 36.5804 37.44 35.52 37.44H27.84C26.7796 37.44 25.92 36.5804 25.92 35.52V27.84C25.92 26.7796 26.7796 25.92 27.84 25.92Z" fill="#1565D8"/>
<path opacity="0.3" fill-rule="evenodd" clip-rule="evenodd" d="M27.84 10.56H35.52C36.5804 10.56 37.44 11.4196 37.44 12.48V20.16C37.44 21.2204 36.5804 22.08 35.52 22.08H27.84C26.7796 22.08 25.92 21.2204 25.92 20.16V12.48C25.92 11.4196 26.7796 10.56 27.84 10.56ZM12.48 25.92H20.16C21.2204 25.92 22.08 26.7796 22.08 27.84V35.52C22.08 36.5804 21.2204 37.44 20.16 37.44H12.48C11.4196 37.44 10.56 36.5804 10.56 35.52V27.84C10.56 26.7796 11.4196 25.92 12.48 25.92Z" fill="#1565D8"/>
</svg>
