<svg width="1031" height="1440" viewBox="0 0 1031 1440" fill="none" xmlns="http://www.w3.org/2000/svg">
<rect width="1030.5" height="1440" fill="#1E1E1E"/>
<g id="Desktop" clip-path="url(#clip0_0_1)">
<rect width="1440" height="6929" transform="translate(-1129.5 -4468.5) scale(1.5)" fill="white"/>
<g id="Platform">
<g id="Right">
<path id="Oval" fill-rule="evenodd" clip-rule="evenodd" d="M720 1440C1117.65 1440 1440 1117.65 1440 720C1440 322.355 1117.65 0 720 0C322.355 0 0 322.355 0 720C0 1117.65 322.355 1440 720 1440Z" fill="#F8FBFF"/>
<g id="Shadow" filter="url(#filter0_d_0_1)">
<rect x="64.5" y="211.5" width="510" height="1017" rx="48" fill="black" fill-opacity="0.01"/>
</g>
<rect id="iphone-x" x="64.5" y="211.5" width="510" height="1017"/>
<g id="Shadow_2" filter="url(#filter1_d_0_1)">
<rect x="634.5" y="123" width="600" height="1194" rx="48" fill="black" fill-opacity="0.01"/>
</g>
<rect id="iphone-x-black" x="634.5" y="123" width="600" height="1194"/>
<g id="Icon" clip-path="url(#clip1_0_1)">
<g id="Oval_2" filter="url(#filter2_d_0_1)">
<path fill-rule="evenodd" clip-rule="evenodd" d="M241.5 828C301.147 828 349.5 779.647 349.5 720C349.5 660.353 301.147 612 241.5 612C181.853 612 133.5 660.353 133.5 720C133.5 779.647 181.853 828 241.5 828Z" fill="white"/>
</g>
<path id="apple" d="M271.781 739.547C271.781 730.875 275.766 724.547 283.5 719.625C279.047 713.297 272.484 710.016 263.812 709.312C255.375 708.609 246.234 714 242.953 714C239.438 714 231.469 709.547 225.141 709.547C212.016 709.781 198.188 719.859 198.188 740.719C198.188 746.812 199.125 753.141 201.469 759.703C204.516 768.375 215.297 789.469 226.547 789C232.406 789 236.625 784.781 244.359 784.781C251.859 784.781 255.609 789 262.172 789C273.656 789 283.5 769.781 286.312 761.109C271.078 753.844 271.781 740.016 271.781 739.547ZM258.656 701.109C264.984 693.609 264.281 686.578 264.281 684C258.656 684.469 252.094 687.984 248.344 692.203C244.125 696.891 241.781 702.75 242.25 709.078C248.344 709.547 253.969 706.5 258.656 701.109Z" fill="#183B56"/>
</g>
<g id="Icon_2" clip-path="url(#clip2_0_1)">
<g id="Oval_3" filter="url(#filter3_d_0_1)">
<path fill-rule="evenodd" clip-rule="evenodd" d="M505.5 828C565.147 828 613.5 779.647 613.5 720C613.5 660.353 565.147 612 505.5 612C445.853 612 397.5 660.353 397.5 720C397.5 779.647 445.853 828 505.5 828Z" fill="white"/>
</g>
<path id="android" d="M473.859 724.547C473.859 721.031 471.047 717.984 467.531 717.984C463.781 717.984 460.5 721.031 460.5 724.547V751.734C460.5 755.25 463.781 758.062 467.531 758.062C471.047 758.062 473.859 755.25 473.859 751.734V724.547ZM476.438 761.344C476.438 765.094 479.484 768.375 483.469 768.375H487.922L488.156 782.672C488.156 791.344 501.047 791.109 501.047 782.672V768.375H509.719V782.672C509.719 791.109 522.844 791.109 522.844 782.672V768.375H527.531C531.281 768.375 534.328 765.094 534.328 761.344V719.391H476.438V761.344ZM534.562 717.047C534.562 706.969 528.469 698.297 519.797 693.609L524.25 685.406C524.953 684.234 523.312 683.531 522.609 684.469L518.156 692.906C510.188 689.391 500.812 689.156 492.609 692.906L488.156 684.469C487.688 683.531 486.047 684.234 486.516 685.406L490.969 693.609C482.062 698.297 476.203 706.969 476.203 717.047H534.562ZM494.484 703.922C494.484 705.328 493.547 706.5 492.141 706.5C490.734 706.5 489.797 705.328 489.797 703.922C489.797 702.75 490.734 701.578 492.141 701.578C493.547 701.578 494.484 702.75 494.484 703.922ZM521.203 703.922C521.203 705.328 520.031 706.5 518.625 706.5C517.453 706.5 516.281 705.328 516.281 703.922C516.281 702.75 517.453 701.578 518.625 701.578C520.031 701.578 521.203 702.75 521.203 703.922ZM543.234 717.984C539.719 717.984 536.906 721.031 536.906 724.547V751.734C536.906 755.25 539.719 758.062 543.234 758.062C546.984 758.062 550.5 755.25 550.5 751.734V724.547C550.5 721.031 546.984 717.984 543.234 717.984Z" fill="#36B37E"/>
</g>
<g id="Icon_3" clip-path="url(#clip3_0_1)">
<g id="Oval_4" filter="url(#filter4_d_0_1)">
<path fill-rule="evenodd" clip-rule="evenodd" d="M769.5 828C829.147 828 877.5 779.647 877.5 720C877.5 660.353 829.147 612 769.5 612C709.853 612 661.5 660.353 661.5 720C661.5 779.647 709.853 828 769.5 828Z" fill="white"/>
</g>
<path id="react" d="M807.469 718.219C806.062 717.75 804.891 717.281 803.719 717.047C803.719 716.109 803.953 715.172 804.188 714.234C807 700.406 805.125 689.156 798.797 685.406C792.703 681.891 782.625 685.641 772.312 694.547C771.375 695.25 770.438 696.188 769.5 697.125C768.797 696.422 768.094 695.953 767.625 695.25C756.844 685.875 746.062 681.891 739.734 685.641C733.641 689.156 731.766 699.703 734.344 713.062C734.578 714.234 734.812 715.641 735.281 716.812C733.641 717.281 732.234 717.75 730.828 718.219C718.406 722.672 709.5 729.469 709.5 736.5C709.5 743.766 718.875 751.266 732 755.719C732.938 755.953 734.109 756.422 735.047 756.656C734.812 758.062 734.578 759.469 734.109 760.875C731.766 773.766 733.641 784.078 739.734 787.594C746.062 791.344 756.844 787.594 767.156 778.453C767.859 777.75 768.797 777.047 769.5 776.344C770.672 777.281 771.609 778.219 772.781 779.156C782.859 787.828 792.703 791.344 798.797 787.828C805.125 784.078 807.234 773.062 804.656 759.469C804.422 758.531 804.188 757.359 803.953 756.422C804.656 756.188 805.359 755.953 806.062 755.719C819.656 751.266 829.5 744 829.5 736.5C829.5 729.469 820.125 722.438 807.469 718.219ZM775.594 698.297C784.5 690.562 792.469 687.75 796.219 689.859C800.203 691.969 801.844 701.344 799.266 713.297C799.031 714.234 799.031 714.938 798.797 715.641C793.406 714.469 788.25 713.766 782.859 713.297C779.812 708.844 776.531 704.625 773.016 700.641C773.953 699.938 774.656 699 775.594 698.297ZM748.641 748.688C749.812 750.797 750.984 752.672 752.391 754.781C748.641 754.312 744.891 753.844 741.375 752.906C742.547 749.625 743.719 746.109 745.125 742.594C746.297 744.703 747.469 746.578 748.641 748.688ZM741.375 720.562C744.891 719.625 748.406 719.156 752.156 718.688C750.984 720.562 749.812 722.672 748.641 724.547C747.469 726.656 746.297 728.531 745.125 730.641C743.719 727.125 742.547 723.844 741.375 720.562ZM747.938 736.734C749.344 733.453 751.219 730.172 752.859 727.125C754.734 724.078 756.609 721.031 758.719 717.984C762.234 717.75 765.75 717.516 769.5 717.516C773.016 717.516 776.766 717.75 780.047 717.984C782.156 721.031 784.031 724.078 785.906 727.125C787.547 730.172 789.422 733.219 790.828 736.5C789.422 739.781 787.781 743.062 785.906 746.109C784.031 749.156 782.156 752.203 780.281 755.25C776.766 755.484 773.016 755.719 769.5 755.719C765.75 755.719 762.234 755.484 758.719 755.25C756.609 752.203 754.734 749.156 752.859 746.109C751.219 743.062 749.578 739.781 747.938 736.734ZM790.125 748.688C791.531 746.578 792.469 744.469 793.641 742.359C795.047 745.875 796.453 749.156 797.625 752.672C793.875 753.609 790.359 754.312 786.609 754.547C787.781 752.672 788.953 750.562 790.125 748.688ZM793.641 730.641C792.469 728.531 791.297 726.656 790.125 724.547C788.953 722.672 787.781 720.562 786.609 718.688C790.359 719.156 794.109 719.859 797.391 720.562C796.219 724.078 795.047 727.359 793.641 730.641ZM769.5 704.391C771.844 706.969 774.188 709.781 776.297 712.828C771.844 712.594 767.156 712.594 762.469 712.828C764.812 709.781 767.156 706.969 769.5 704.391ZM742.312 689.859C746.297 687.75 754.969 691.031 764.109 699C764.812 699.703 765.281 700.172 765.984 700.641C762.234 704.625 758.953 708.844 755.906 713.297C750.516 713.766 745.359 714.469 740.203 715.641C739.734 714.469 739.5 713.297 739.266 711.891C737.156 700.641 738.562 692.203 742.312 689.859ZM736.453 751.734C735.516 751.5 734.578 751.266 733.641 750.797C728.719 749.156 722.859 746.812 718.875 743.531C716.531 741.891 714.891 739.312 714.422 736.5C714.422 732.281 721.922 726.656 732.469 722.906C733.875 722.438 735.281 722.203 736.688 721.734C738.094 726.891 740.203 731.812 742.312 736.734C739.969 741.422 738.094 746.578 736.453 751.734ZM763.875 774.703C759.891 778.219 755.438 781.031 750.516 782.906C747.938 784.312 745.125 784.312 742.312 783.375C738.562 781.031 737.156 772.828 739.266 761.812C739.5 760.406 739.734 759 739.969 757.828C745.359 759 750.516 759.703 755.906 760.172C758.953 764.391 762.469 768.609 765.984 772.594C765.281 773.297 764.578 774 763.875 774.703ZM769.5 769.078C767.156 766.5 764.812 763.688 762.469 760.406C764.812 760.641 767.156 760.641 769.5 760.641C771.844 760.641 774.188 760.641 776.531 760.406C774.422 763.453 772.078 766.266 769.5 769.078ZM800.203 776.109C799.969 778.922 798.562 781.5 796.453 783.375C792.703 785.484 784.734 782.672 776.062 775.406C775.125 774.469 774.188 773.531 773.016 772.594C776.766 768.609 780.047 764.625 783.094 760.172C788.484 759.703 793.641 758.766 799.031 757.594C799.266 758.531 799.5 759.469 799.734 760.406C800.672 765.562 800.906 770.953 800.203 776.109ZM804.422 750.797C803.719 751.031 803.25 751.266 802.547 751.5C800.906 746.344 798.797 741.422 796.453 736.5C798.797 731.812 800.672 726.891 802.312 721.734C803.484 722.203 804.656 722.438 805.828 722.906C816.609 726.656 824.344 732.281 824.344 736.5C824.344 740.953 816.141 747.047 804.422 750.797ZM769.5 747.281C775.359 747.281 780.047 742.594 780.047 736.5C780.047 730.641 775.359 725.953 769.5 725.953C763.406 725.953 758.719 730.641 758.719 736.5C758.719 742.594 763.406 747.281 769.5 747.281Z" fill="#00B8D9"/>
</g>
</g>
</g>
</g>
<defs>
<filter id="filter0_d_0_1" x="-15" y="172.5" width="669" height="1176" filterUnits="userSpaceOnUse" color-interpolation-filters="sRGB">
<feFlood flood-opacity="0" result="BackgroundImageFix"/>
<feColorMatrix in="SourceAlpha" type="matrix" values="0 0 0 0 0 0 0 0 0 0 0 0 0 0 0 0 0 0 127 0" result="hardAlpha"/>
<feOffset dy="27"/>
<feGaussianBlur stdDeviation="26.5"/>
<feColorMatrix type="matrix" values="0 0 0 0 0 0 0 0 0 0 0 0 0 0 0 0 0 0 0.1 0"/>
<feBlend mode="normal" in2="BackgroundImageFix" result="effect1_dropShadow_0_1"/>
<feBlend mode="normal" in="SourceGraphic" in2="effect1_dropShadow_0_1" result="shape"/>
</filter>
<filter id="filter1_d_0_1" x="559.5" y="85.5" width="750" height="1344" filterUnits="userSpaceOnUse" color-interpolation-filters="sRGB">
<feFlood flood-opacity="0" result="BackgroundImageFix"/>
<feColorMatrix in="SourceAlpha" type="matrix" values="0 0 0 0 0 0 0 0 0 0 0 0 0 0 0 0 0 0 127 0" result="hardAlpha"/>
<feOffset dy="25"/>
<feGaussianBlur stdDeviation="25"/>
<feColorMatrix type="matrix" values="0 0 0 0 0 0 0 0 0 0 0 0 0 0 0 0 0 0 0.2 0"/>
<feBlend mode="normal" in2="BackgroundImageFix" result="effect1_dropShadow_0_1"/>
<feBlend mode="normal" in="SourceGraphic" in2="effect1_dropShadow_0_1" result="shape"/>
</filter>
<filter id="filter2_d_0_1" x="37.5" y="564" width="408" height="408" filterUnits="userSpaceOnUse" color-interpolation-filters="sRGB">
<feFlood flood-opacity="0" result="BackgroundImageFix"/>
<feColorMatrix in="SourceAlpha" type="matrix" values="0 0 0 0 0 0 0 0 0 0 0 0 0 0 0 0 0 0 127 0" result="hardAlpha"/>
<feOffset dy="32"/>
<feGaussianBlur stdDeviation="32"/>
<feColorMatrix type="matrix" values="0 0 0 0 0 0 0 0 0 0 0 0 0 0 0 0 0 0 0.1 0"/>
<feBlend mode="normal" in2="BackgroundImageFix" result="effect1_dropShadow_0_1"/>
<feBlend mode="normal" in="SourceGraphic" in2="effect1_dropShadow_0_1" result="shape"/>
</filter>
<filter id="filter3_d_0_1" x="301.5" y="564" width="408" height="408" filterUnits="userSpaceOnUse" color-interpolation-filters="sRGB">
<feFlood flood-opacity="0" result="BackgroundImageFix"/>
<feColorMatrix in="SourceAlpha" type="matrix" values="0 0 0 0 0 0 0 0 0 0 0 0 0 0 0 0 0 0 127 0" result="hardAlpha"/>
<feOffset dy="32"/>
<feGaussianBlur stdDeviation="32"/>
<feColorMatrix type="matrix" values="0 0 0 0 0 0 0 0 0 0 0 0 0 0 0 0 0 0 0.1 0"/>
<feBlend mode="normal" in2="BackgroundImageFix" result="effect1_dropShadow_0_1"/>
<feBlend mode="normal" in="SourceGraphic" in2="effect1_dropShadow_0_1" result="shape"/>
</filter>
<filter id="filter4_d_0_1" x="565.5" y="564" width="408" height="408" filterUnits="userSpaceOnUse" color-interpolation-filters="sRGB">
<feFlood flood-opacity="0" result="BackgroundImageFix"/>
<feColorMatrix in="SourceAlpha" type="matrix" values="0 0 0 0 0 0 0 0 0 0 0 0 0 0 0 0 0 0 127 0" result="hardAlpha"/>
<feOffset dy="32"/>
<feGaussianBlur stdDeviation="32"/>
<feColorMatrix type="matrix" values="0 0 0 0 0 0 0 0 0 0 0 0 0 0 0 0 0 0 0.1 0"/>
<feBlend mode="normal" in2="BackgroundImageFix" result="effect1_dropShadow_0_1"/>
<feBlend mode="normal" in="SourceGraphic" in2="effect1_dropShadow_0_1" result="shape"/>
</filter>
<clipPath id="clip0_0_1">
<rect width="1440" height="6929" fill="white" transform="translate(-1129.5 -4468.5) scale(1.5)"/>
</clipPath>
<clipPath id="clip1_0_1">
<rect width="144" height="144" fill="white" transform="translate(133.5 612) scale(1.5)"/>
</clipPath>
<clipPath id="clip2_0_1">
<rect width="144" height="144" fill="white" transform="translate(397.5 612) scale(1.5)"/>
</clipPath>
<clipPath id="clip3_0_1">
<rect width="144" height="144" fill="white" transform="translate(661.5 612) scale(1.5)"/>
</clipPath>
</defs>
</svg>
