<svg width="697" height="960" viewBox="0 0 697 960" fill="none" xmlns="http://www.w3.org/2000/svg">
<path fill-rule="evenodd" clip-rule="evenodd" d="M490 960C755.097 960 970 745.097 970 480C970 214.903 755.097 0 490 0C224.903 0 10 214.903 10 480C10 745.097 224.903 960 490 960Z" fill="#F8FBFF"/>
<g filter="url(#filter0_d_1_507)">
<rect x="53" y="141" width="340" height="678" rx="48" fill="black" fill-opacity="0.01"/>
</g>
<rect x="53" y="141" width="340" height="678"/>
<g filter="url(#filter1_d_1_507)">
<rect x="433" y="82" width="400" height="796" rx="48" fill="black" fill-opacity="0.01"/>
</g>
<rect x="433" y="82" width="400" height="796"/>
<g clip-path="url(#clip0_1_507)">
<g filter="url(#filter2_d_1_507)">
<path fill-rule="evenodd" clip-rule="evenodd" d="M171 552C210.765 552 243 519.765 243 480C243 440.235 210.765 408 171 408C131.235 408 99 440.235 99 480C99 519.765 131.235 552 171 552Z" fill="white"/>
</g>
<path d="M191.188 493.031C191.188 487.25 193.844 483.031 199 479.75C196.031 475.531 191.656 473.344 185.875 472.875C180.25 472.406 174.156 476 171.969 476C169.625 476 164.312 473.031 160.094 473.031C151.344 473.188 142.125 479.906 142.125 493.812C142.125 497.875 142.75 502.094 144.312 506.469C146.344 512.25 153.531 526.312 161.031 526C164.938 526 167.75 523.188 172.906 523.188C177.906 523.188 180.406 526 184.781 526C192.438 526 199 513.188 200.875 507.406C190.719 502.562 191.188 493.344 191.188 493.031ZM182.438 467.406C186.656 462.406 186.188 457.719 186.188 456C182.438 456.312 178.062 458.656 175.562 461.469C172.75 464.594 171.188 468.5 171.5 472.719C175.562 473.031 179.312 471 182.438 467.406Z" fill="#183B56"/>
</g>
<g clip-path="url(#clip1_1_507)">
<g filter="url(#filter3_d_1_507)">
<path fill-rule="evenodd" clip-rule="evenodd" d="M347 552C386.765 552 419 519.765 419 480C419 440.235 386.765 408 347 408C307.235 408 275 440.235 275 480C275 519.765 307.235 552 347 552Z" fill="white"/>
</g>
<path d="M325.906 483.031C325.906 480.688 324.031 478.656 321.688 478.656C319.188 478.656 317 480.688 317 483.031V501.156C317 503.5 319.188 505.375 321.688 505.375C324.031 505.375 325.906 503.5 325.906 501.156V483.031ZM327.625 507.562C327.625 510.062 329.656 512.25 332.312 512.25H335.281L335.438 521.781C335.438 527.562 344.031 527.406 344.031 521.781V512.25H349.812V521.781C349.812 527.406 358.562 527.406 358.562 521.781V512.25H361.688C364.188 512.25 366.219 510.062 366.219 507.562V479.594H327.625V507.562ZM366.375 478.031C366.375 471.312 362.312 465.531 356.531 462.406L359.5 456.938C359.969 456.156 358.875 455.688 358.406 456.312L355.438 461.938C350.125 459.594 343.875 459.438 338.406 461.938L335.438 456.312C335.125 455.688 334.031 456.156 334.344 456.938L337.312 462.406C331.375 465.531 327.469 471.312 327.469 478.031H366.375ZM339.656 469.281C339.656 470.219 339.031 471 338.094 471C337.156 471 336.531 470.219 336.531 469.281C336.531 468.5 337.156 467.719 338.094 467.719C339.031 467.719 339.656 468.5 339.656 469.281ZM357.469 469.281C357.469 470.219 356.688 471 355.75 471C354.969 471 354.188 470.219 354.188 469.281C354.188 468.5 354.969 467.719 355.75 467.719C356.688 467.719 357.469 468.5 357.469 469.281ZM372.156 478.656C369.812 478.656 367.938 480.688 367.938 483.031V501.156C367.938 503.5 369.812 505.375 372.156 505.375C374.656 505.375 377 503.5 377 501.156V483.031C377 480.688 374.656 478.656 372.156 478.656Z" fill="#36B37E"/>
</g>
<g clip-path="url(#clip2_1_507)">
<g filter="url(#filter4_d_1_507)">
<path fill-rule="evenodd" clip-rule="evenodd" d="M523 552C562.765 552 595 519.765 595 480C595 440.235 562.765 408 523 408C483.235 408 451 440.235 451 480C451 519.765 483.235 552 523 552Z" fill="white"/>
</g>
<path d="M548.312 478.812C547.375 478.5 546.594 478.188 545.812 478.031C545.812 477.406 545.969 476.781 546.125 476.156C548 466.938 546.75 459.438 542.531 456.938C538.469 454.594 531.75 457.094 524.875 463.031C524.25 463.5 523.625 464.125 523 464.75C522.531 464.281 522.062 463.969 521.75 463.5C514.562 457.25 507.375 454.594 503.156 457.094C499.094 459.438 497.844 466.469 499.562 475.375C499.719 476.156 499.875 477.094 500.188 477.875C499.094 478.188 498.156 478.5 497.219 478.812C488.938 481.781 483 486.312 483 491C483 495.844 489.25 500.844 498 503.812C498.625 503.969 499.406 504.281 500.031 504.438C499.875 505.375 499.719 506.312 499.406 507.25C497.844 515.844 499.094 522.719 503.156 525.062C507.375 527.562 514.562 525.062 521.438 518.969C521.906 518.5 522.531 518.031 523 517.562C523.781 518.188 524.406 518.812 525.188 519.438C531.906 525.219 538.469 527.562 542.531 525.219C546.75 522.719 548.156 515.375 546.438 506.312C546.281 505.688 546.125 504.906 545.969 504.281C546.438 504.125 546.906 503.969 547.375 503.812C556.438 500.844 563 496 563 491C563 486.312 556.75 481.625 548.312 478.812ZM527.062 465.531C533 460.375 538.312 458.5 540.812 459.906C543.469 461.312 544.562 467.562 542.844 475.531C542.688 476.156 542.688 476.625 542.531 477.094C538.938 476.312 535.5 475.844 531.906 475.531C529.875 472.562 527.688 469.75 525.344 467.094C525.969 466.625 526.438 466 527.062 465.531ZM509.094 499.125C509.875 500.531 510.656 501.781 511.594 503.188C509.094 502.875 506.594 502.562 504.25 501.938C505.031 499.75 505.812 497.406 506.75 495.062C507.531 496.469 508.312 497.719 509.094 499.125ZM504.25 480.375C506.594 479.75 508.938 479.438 511.438 479.125C510.656 480.375 509.875 481.781 509.094 483.031C508.312 484.438 507.531 485.688 506.75 487.094C505.812 484.75 505.031 482.562 504.25 480.375ZM508.625 491.156C509.562 488.969 510.812 486.781 511.906 484.75C513.156 482.719 514.406 480.688 515.812 478.656C518.156 478.5 520.5 478.344 523 478.344C525.344 478.344 527.844 478.5 530.031 478.656C531.438 480.688 532.688 482.719 533.938 484.75C535.031 486.781 536.281 488.812 537.219 491C536.281 493.188 535.188 495.375 533.938 497.406C532.688 499.438 531.438 501.469 530.188 503.5C527.844 503.656 525.344 503.812 523 503.812C520.5 503.812 518.156 503.656 515.812 503.5C514.406 501.469 513.156 499.438 511.906 497.406C510.812 495.375 509.719 493.188 508.625 491.156ZM536.75 499.125C537.688 497.719 538.312 496.312 539.094 494.906C540.031 497.25 540.969 499.438 541.75 501.781C539.25 502.406 536.906 502.875 534.406 503.031C535.188 501.781 535.969 500.375 536.75 499.125ZM539.094 487.094C538.312 485.688 537.531 484.438 536.75 483.031C535.969 481.781 535.188 480.375 534.406 479.125C536.906 479.438 539.406 479.906 541.594 480.375C540.812 482.719 540.031 484.906 539.094 487.094ZM523 469.594C524.562 471.312 526.125 473.188 527.531 475.219C524.562 475.062 521.438 475.062 518.312 475.219C519.875 473.188 521.438 471.312 523 469.594ZM504.875 459.906C507.531 458.5 513.312 460.688 519.406 466C519.875 466.469 520.188 466.781 520.656 467.094C518.156 469.75 515.969 472.562 513.938 475.531C510.344 475.844 506.906 476.312 503.469 477.094C503.156 476.312 503 475.531 502.844 474.594C501.438 467.094 502.375 461.469 504.875 459.906ZM500.969 501.156C500.344 501 499.719 500.844 499.094 500.531C495.812 499.438 491.906 497.875 489.25 495.688C487.688 494.594 486.594 492.875 486.281 491C486.281 488.188 491.281 484.438 498.312 481.938C499.25 481.625 500.188 481.469 501.125 481.156C502.062 484.594 503.469 487.875 504.875 491.156C503.312 494.281 502.062 497.719 500.969 501.156ZM519.25 516.469C516.594 518.812 513.625 520.688 510.344 521.938C508.625 522.875 506.75 522.875 504.875 522.25C502.375 520.688 501.438 515.219 502.844 507.875C503 506.938 503.156 506 503.312 505.219C506.906 506 510.344 506.469 513.938 506.781C515.969 509.594 518.312 512.406 520.656 515.062C520.188 515.531 519.719 516 519.25 516.469ZM523 512.719C521.438 511 519.875 509.125 518.312 506.938C519.875 507.094 521.438 507.094 523 507.094C524.562 507.094 526.125 507.094 527.688 506.938C526.281 508.969 524.719 510.844 523 512.719ZM543.469 517.406C543.312 519.281 542.375 521 540.969 522.25C538.469 523.656 533.156 521.781 527.375 516.938C526.75 516.312 526.125 515.688 525.344 515.062C527.844 512.406 530.031 509.75 532.062 506.781C535.656 506.469 539.094 505.844 542.688 505.062C542.844 505.688 543 506.312 543.156 506.938C543.781 510.375 543.938 513.969 543.469 517.406ZM546.281 500.531C545.812 500.688 545.5 500.844 545.031 501C543.938 497.562 542.531 494.281 540.969 491C542.531 487.875 543.781 484.594 544.875 481.156C545.656 481.469 546.438 481.625 547.219 481.938C554.406 484.438 559.562 488.188 559.562 491C559.562 493.969 554.094 498.031 546.281 500.531ZM523 498.188C526.906 498.188 530.031 495.062 530.031 491C530.031 487.094 526.906 483.969 523 483.969C518.938 483.969 515.812 487.094 515.812 491C515.812 495.062 518.938 498.188 523 498.188Z" fill="#00B8D9"/>
</g>
<defs>
<filter id="filter0_d_1_507" x="0" y="115" width="446" height="784" filterUnits="userSpaceOnUse" color-interpolation-filters="sRGB">
<feFlood flood-opacity="0" result="BackgroundImageFix"/>
<feColorMatrix in="SourceAlpha" type="matrix" values="0 0 0 0 0 0 0 0 0 0 0 0 0 0 0 0 0 0 127 0" result="hardAlpha"/>
<feOffset dy="27"/>
<feGaussianBlur stdDeviation="26.5"/>
<feColorMatrix type="matrix" values="0 0 0 0 0 0 0 0 0 0 0 0 0 0 0 0 0 0 0.1 0"/>
<feBlend mode="normal" in2="BackgroundImageFix" result="effect1_dropShadow_1_507"/>
<feBlend mode="normal" in="SourceGraphic" in2="effect1_dropShadow_1_507" result="shape"/>
</filter>
<filter id="filter1_d_1_507" x="383" y="57" width="500" height="896" filterUnits="userSpaceOnUse" color-interpolation-filters="sRGB">
<feFlood flood-opacity="0" result="BackgroundImageFix"/>
<feColorMatrix in="SourceAlpha" type="matrix" values="0 0 0 0 0 0 0 0 0 0 0 0 0 0 0 0 0 0 127 0" result="hardAlpha"/>
<feOffset dy="25"/>
<feGaussianBlur stdDeviation="25"/>
<feColorMatrix type="matrix" values="0 0 0 0 0 0 0 0 0 0 0 0 0 0 0 0 0 0 0.2 0"/>
<feBlend mode="normal" in2="BackgroundImageFix" result="effect1_dropShadow_1_507"/>
<feBlend mode="normal" in="SourceGraphic" in2="effect1_dropShadow_1_507" result="shape"/>
</filter>
<filter id="filter2_d_1_507" x="35" y="376" width="272" height="272" filterUnits="userSpaceOnUse" color-interpolation-filters="sRGB">
<feFlood flood-opacity="0" result="BackgroundImageFix"/>
<feColorMatrix in="SourceAlpha" type="matrix" values="0 0 0 0 0 0 0 0 0 0 0 0 0 0 0 0 0 0 127 0" result="hardAlpha"/>
<feOffset dy="32"/>
<feGaussianBlur stdDeviation="32"/>
<feColorMatrix type="matrix" values="0 0 0 0 0 0 0 0 0 0 0 0 0 0 0 0 0 0 0.1 0"/>
<feBlend mode="normal" in2="BackgroundImageFix" result="effect1_dropShadow_1_507"/>
<feBlend mode="normal" in="SourceGraphic" in2="effect1_dropShadow_1_507" result="shape"/>
</filter>
<filter id="filter3_d_1_507" x="211" y="376" width="272" height="272" filterUnits="userSpaceOnUse" color-interpolation-filters="sRGB">
<feFlood flood-opacity="0" result="BackgroundImageFix"/>
<feColorMatrix in="SourceAlpha" type="matrix" values="0 0 0 0 0 0 0 0 0 0 0 0 0 0 0 0 0 0 127 0" result="hardAlpha"/>
<feOffset dy="32"/>
<feGaussianBlur stdDeviation="32"/>
<feColorMatrix type="matrix" values="0 0 0 0 0 0 0 0 0 0 0 0 0 0 0 0 0 0 0.1 0"/>
<feBlend mode="normal" in2="BackgroundImageFix" result="effect1_dropShadow_1_507"/>
<feBlend mode="normal" in="SourceGraphic" in2="effect1_dropShadow_1_507" result="shape"/>
</filter>
<filter id="filter4_d_1_507" x="387" y="376" width="272" height="272" filterUnits="userSpaceOnUse" color-interpolation-filters="sRGB">
<feFlood flood-opacity="0" result="BackgroundImageFix"/>
<feColorMatrix in="SourceAlpha" type="matrix" values="0 0 0 0 0 0 0 0 0 0 0 0 0 0 0 0 0 0 127 0" result="hardAlpha"/>
<feOffset dy="32"/>
<feGaussianBlur stdDeviation="32"/>
<feColorMatrix type="matrix" values="0 0 0 0 0 0 0 0 0 0 0 0 0 0 0 0 0 0 0.1 0"/>
<feBlend mode="normal" in2="BackgroundImageFix" result="effect1_dropShadow_1_507"/>
<feBlend mode="normal" in="SourceGraphic" in2="effect1_dropShadow_1_507" result="shape"/>
</filter>
<clipPath id="clip0_1_507">
<rect width="144" height="144" fill="white" transform="translate(99 408)"/>
</clipPath>
<clipPath id="clip1_1_507">
<rect width="144" height="144" fill="white" transform="translate(275 408)"/>
</clipPath>
<clipPath id="clip2_1_507">
<rect width="144" height="144" fill="white" transform="translate(451 408)"/>
</clipPath>
</defs>
</svg>
