<svg width="96" height="32" viewBox="0 0 96 32" fill="none" xmlns="http://www.w3.org/2000/svg">
<path d="M23.6269 11.1255H12.4352V14.4255H20.3938C19.9959 19.0755 16.1161 21.1255 12.485 21.1255C7.80933 21.1255 3.73057 17.4255 3.73057 12.2755C3.73057 7.22553 7.61036 3.32553 12.485 3.32553C16.2653 3.32553 18.4539 5.72553 18.4539 5.72553L20.742 3.32553C20.742 3.32553 17.7575 0.0255257 12.3358 0.0255257C5.42176 -0.0244743 0.0994835 5.82553 0.0994835 12.1755C0.0994835 18.3755 5.12332 24.4255 12.5347 24.4255C19.0508 24.4255 23.8259 19.9755 23.8259 13.3255C23.8259 11.9255 23.6269 11.1255 23.6269 11.1255Z" fill="#8C98A4"/>
<path fill-rule="evenodd" clip-rule="evenodd" d="M24.8705 16.4755C24.8705 12.2755 28.1534 8.67554 32.7295 8.67554C36.5098 8.67554 40.5886 11.3755 40.6383 16.5755C40.6383 21.1755 37.1565 24.4255 32.829 24.4255C28.0539 24.4255 24.8705 20.7755 24.8705 16.4755ZM37.1565 16.5755C37.1565 13.6755 35.0176 11.8255 32.7793 11.8255C30.2425 11.8255 28.3026 13.8255 28.3523 16.5255C28.3523 19.3255 30.2922 21.3255 32.7793 21.3255C35.0674 21.3255 37.1565 19.4755 37.1565 16.5755Z" fill="#8C98A4"/>
<path fill-rule="evenodd" clip-rule="evenodd" d="M41.9813 16.4755C41.9813 12.2755 45.2642 8.67554 49.8404 8.67554C53.6207 8.67554 57.6995 11.3755 57.7492 16.5755C57.7492 21.1755 54.2674 24.4255 49.9399 24.4255C45.1648 24.4255 41.9813 20.7755 41.9813 16.4755ZM54.2674 16.5755C54.2674 13.6755 52.1285 11.8255 49.8902 11.8255C47.3534 11.8255 45.4135 13.8255 45.4632 16.5255C45.4632 19.3255 47.4031 21.3255 49.8902 21.3255C52.1782 21.3255 54.2674 19.4755 54.2674 16.5755Z" fill="#8C98A4"/>
<path fill-rule="evenodd" clip-rule="evenodd" d="M59.0922 16.5755C59.0922 12.4255 62.3751 8.72552 66.6031 8.72552C68.4435 8.72552 69.8363 9.42552 70.7316 10.5255V9.17552H74.0145V23.3255C74.0145 28.8755 70.8311 31.5255 66.6528 31.5255C62.8228 31.5255 60.6839 29.1755 59.6394 26.9255L62.6736 25.6755C63.1212 26.6755 64.315 28.4755 66.7026 28.4755C69.1896 28.4755 70.8311 26.8255 70.8311 24.1255V22.5755C69.886 23.6255 68.742 24.4755 66.5036 24.4755C62.9223 24.4755 59.0922 21.2755 59.0922 16.5755ZM71.0798 16.6255C71.0798 13.6255 68.9409 11.8255 66.9016 11.8255C64.713 11.8255 62.5741 13.5755 62.5244 16.6755C62.5244 19.5255 64.6135 21.3755 66.8518 21.3755C68.9907 21.3755 71.0798 19.7255 71.0798 16.6255Z" fill="#8C98A4"/>
<path fill-rule="evenodd" clip-rule="evenodd" d="M81.4259 16.5255C81.4259 11.8255 84.7585 8.67554 88.7378 8.67554C91.8218 8.67554 94.1596 10.7755 95.2041 13.1755L95.7513 14.4755L85.256 18.8755C85.9026 20.0755 86.8974 21.2755 89.086 21.2755C91.0259 21.2755 92.2197 20.2255 92.9161 19.1255L95.6518 20.9755C94.458 22.5755 92.3689 24.4255 89.086 24.4255C85.1565 24.4255 81.4259 21.4755 81.4259 16.5255ZM91.772 13.4255C91.2746 12.4755 90.2798 11.7255 88.8373 11.7255C86.599 11.7255 84.4104 14.0755 84.8083 16.3755L91.772 13.4255Z" fill="#8C98A4"/>
<path d="M76.4518 23.9755H79.8839V0.775513H76.4518V23.9755Z" fill="#8C98A4"/>
</svg>
