<svg width="110" height="32" viewBox="0 0 110 32" fill="none" xmlns="http://www.w3.org/2000/svg">
<path d="M19.7015 3.19998C19.2637 1.7655 17.7314 0.993084 16.3085 1.43446C14.8856 1.87584 14.1194 3.42067 14.5572 4.85515L21.5622 26.5931C22.0548 27.9172 23.4776 28.6896 24.8458 28.3034C26.2687 27.862 27.1443 26.3724 26.7065 24.9379C26.7065 24.8827 19.7015 3.19998 19.7015 3.19998Z" fill="#8C98A4"/>
<path d="M8.8657 6.78616C8.42789 5.35168 6.89556 4.57927 5.47267 5.02065C4.04978 5.46202 3.28361 7.00685 3.72143 8.44133L10.7264 30.1793C11.2189 31.5034 12.6418 32.2758 14.01 31.8896C15.4329 31.4482 16.3085 29.9586 15.8707 28.5241C15.8707 28.4689 8.8657 6.78616 8.8657 6.78616Z" fill="#8C98A4"/>
<path d="M28.5672 21.2414C29.9901 20.8 30.7562 19.2552 30.3184 17.8207C29.8806 16.3862 28.3483 15.6138 26.9254 16.0552L5.30846 23.0621C3.99503 23.5586 3.22886 24.9931 3.61194 26.3724C4.04975 27.8069 5.52736 28.6897 6.95025 28.2483C7.0597 28.2483 28.5672 21.2414 28.5672 21.2414Z" fill="#8C98A4"/>
<path d="M9.79613 27.3655C11.219 26.9242 13.025 26.3173 14.9404 25.6552C14.5026 24.2207 13.9006 22.4 13.2439 20.469L8.09961 22.1793L9.79613 27.3655Z" fill="#8C98A4"/>
<path d="M20.6866 23.7793C22.6568 23.1172 24.4627 22.5655 25.8309 22.069C25.3931 20.6345 24.7911 18.8138 24.1344 16.8828L18.9901 18.5931L20.6866 23.7793Z" fill="#8C98A4"/>
<path d="M25.01 10.2621C26.4329 9.82071 27.1991 8.27588 26.7612 6.8414C26.3234 5.40692 24.7911 4.6345 23.3682 5.07588L1.80602 12.138C0.492585 12.6345 -0.273584 14.069 0.109501 15.4483C0.547312 16.938 2.02492 17.8207 3.44781 17.3242C3.50254 17.3242 25.01 10.2621 25.01 10.2621Z" fill="#8C98A4"/>
<path d="M6.29356 16.3862C7.71645 15.9449 9.52242 15.338 11.4378 14.6759C10.7811 12.6897 10.2339 10.869 9.74132 9.48969L4.59705 11.2L6.29356 16.3862Z" fill="#8C98A4"/>
<path d="M17.1294 12.8552C19.0995 12.1931 20.9055 11.6414 22.2737 11.1448C21.6169 9.15862 21.0697 7.33793 20.5771 5.95862L15.4329 7.66896L17.1294 12.8552Z" fill="#8C98A4"/>
<path d="M50.4031 8.93796C51.3334 9.37934 51.4429 9.6552 50.6767 11.0897C49.9105 12.5793 49.7464 12.6345 48.7613 12.2483C47.5573 11.7518 46.0797 11.3655 45.0946 11.3655C43.5075 11.3655 42.4677 11.9173 42.4677 12.8C42.4677 15.669 51.607 14.1242 51.607 20.3035C51.607 23.3931 48.9802 25.4345 45.0399 25.4345C42.9603 25.4345 40.3881 24.7173 38.6369 23.8345C37.7613 23.3931 37.7066 23.1173 38.4727 21.6276C39.1294 20.3587 39.3483 20.1931 40.2787 20.5793C41.811 21.2414 43.6717 21.738 44.9852 21.738C46.4628 21.738 47.3931 21.1311 47.3931 20.2483C47.3931 17.4345 38.0896 18.7587 38.0896 12.8C38.0896 9.6552 40.7165 7.50348 44.6021 7.50348C46.4628 7.669 48.816 8.22072 50.4031 8.93796Z" fill="#8C98A4"/>
<path d="M57.791 1.65517V24.6069C57.791 24.9379 57.408 25.3241 56.9154 25.3241H54.5075C53.9602 25.3241 53.6318 24.9379 53.6318 24.6069V1.65517C53.6318 0.496553 53.9602 0.441381 55.7114 0.441381C57.6816 0.386208 57.791 0.551726 57.791 1.65517Z" fill="#8C98A4"/>
<path fill-rule="evenodd" clip-rule="evenodd" d="M74.7563 24.3862V14.5103C74.7563 10.2069 71.8558 7.66895 67.2587 7.66895C65.1791 7.66895 62.8806 8.33101 61.2388 9.43446C60.3632 9.98619 60.3632 10.262 61.2388 11.6414C62.1692 13.0207 62.3334 13.0758 63.209 12.5793C64.3035 11.9172 65.6717 11.4758 66.8209 11.4758C69.2289 11.4758 70.6518 12.5793 70.6518 14.4V15.5586C69.5025 15.062 68.0796 14.7862 66.5473 14.7862C62.4428 14.7862 59.7612 16.9931 59.7612 20.3034C59.7612 23.3931 62.1692 25.4896 65.7264 25.4896C67.5871 25.4896 69.4478 24.7172 70.7065 23.2827L70.6518 24.331C70.5971 24.8827 70.9801 25.2689 71.5274 25.2689H73.8806C74.3732 25.2689 74.7563 24.9379 74.7563 24.3862ZM66.2189 22.1793C64.7413 22.1793 63.7563 21.4069 63.7563 20.2483C63.7563 18.8138 65.2339 17.7103 67.4229 17.7103C68.4627 17.7103 69.6667 17.8758 70.5971 18.262V19.8069C69.6667 21.2965 68.0249 22.1793 66.2189 22.1793Z" fill="#8C98A4"/>
<path d="M91.01 8.9931C91.8856 9.48965 91.8856 9.76552 90.9553 11.2552C90.0797 12.6345 89.9155 12.7448 88.9304 12.2483C88.219 11.8621 87.015 11.531 86.0846 11.531C83.0747 11.531 81.1045 13.5172 81.1045 16.5517C81.1045 19.6965 83.0747 21.7931 86.0846 21.7931C87.1244 21.7931 88.4379 21.4069 89.2588 20.9103C90.1344 20.4138 90.2986 20.4138 91.2289 21.7931C92.0498 23.0621 92.0498 23.3379 91.2837 23.8897C89.9702 24.8276 87.8359 25.5448 85.9752 25.5448C80.4478 25.5448 76.7264 21.9586 76.7264 16.6069C76.7264 11.2552 80.4478 7.72414 86.0299 7.72414C87.7812 7.66896 89.7513 8.22069 91.01 8.9931Z" fill="#8C98A4"/>
<path d="M109.124 23.1173C109.836 24 109.562 24.3311 107.811 24.938C106.06 25.6 105.786 25.5449 105.184 24.7173L100.204 18.0414L97.9602 20.1931V24.5518C97.9602 24.8828 97.5771 25.269 97.0846 25.269H94.6766C94.1294 25.269 93.801 24.8828 93.801 24.5518V1.6552C93.801 0.496579 94.1294 0.441406 95.8806 0.441406C97.9055 0.441406 97.9602 0.606924 97.9602 1.6552V14.6759L104.746 8.11037C105.512 7.39313 105.896 7.4483 107.264 8.33106C108.741 9.26899 108.851 9.54485 108.139 10.2621L103.105 15.2276L109.124 23.1173Z" fill="#8C98A4"/>
</svg>
