<svg width="96" height="21" viewBox="0 0 96 21" fill="none" xmlns="http://www.w3.org/2000/svg">
<path d="M15.0448 0.732574V12.014C15.0448 15.7744 13.4209 17.3372 9.6 17.3372C5.77911 17.3372 4.15522 15.7744 4.15522 12.014V0.244202H0.477612C0.143284 0.244202 0 0.390713 0 0.732574V12.1605C0 18.4605 3.91642 20.6582 9.6 20.6582C15.2836 20.6582 19.2 18.4605 19.2 12.1605V0.244202H15.5224C15.2358 0.244202 15.0448 0.390713 15.0448 0.732574Z" fill="#8C98A4"/>
<path d="M68.394 3.51629C68.6806 3.51629 68.8239 3.41862 68.9194 3.17443L69.9701 0.488388C70.0179 0.341876 69.9701 0.244202 69.8269 0.244202H55.0209C53.6358 0.244202 53.1104 0.683737 53.1104 1.66048V19.1442C53.1104 19.9744 53.4925 20.3163 54.591 20.3163H68.394C68.6806 20.3163 68.8239 20.2186 68.9194 19.9744L69.9701 17.2884C70.0179 17.1419 69.9701 17.0442 69.8269 17.0442H57.1701V13.4791C57.1701 12.2582 57.8388 11.6721 59.606 11.6721H65.0985C65.3851 11.6721 65.5284 11.5744 65.6239 11.3302L66.6269 8.74188C66.6746 8.59536 66.6269 8.49769 66.4836 8.49769H57.1224V3.51629H68.394Z" fill="#8C98A4"/>
<path fill-rule="evenodd" clip-rule="evenodd" d="M44.609 5.32327C44.609 7.22792 43.9403 8.83955 42.3164 9.71862C44.5134 10.3535 45.5164 12.3558 45.4687 14.7489C45.4687 18.7535 42.6985 20.3163 38.8299 20.3163H28.5612C27.4627 20.3163 27.0806 19.9744 27.0806 19.1442V1.66048C27.0806 0.683737 27.606 0.244202 28.991 0.244202H37.397C41.0746 0.244202 44.609 0.879085 44.609 5.32327ZM31.1881 3.46746H37.6836C39.8328 3.46746 40.4537 4.29769 40.4537 6.05583C40.4537 7.76513 39.8328 8.6442 37.6836 8.6442H31.1881V3.46746ZM38.4478 17.093H31.1881V13.4302C31.1881 12.2093 31.8567 11.6233 33.6239 11.6233H38.4478C40.7403 11.6233 41.409 12.5512 41.409 14.3582C41.409 16.214 40.7403 17.093 38.4478 17.093Z" fill="#8C98A4"/>
<path fill-rule="evenodd" clip-rule="evenodd" d="M91.2717 12.2582L95.6657 19.9744C95.7612 20.0721 95.7612 20.3163 95.4269 20.3163H91.7015C91.4261 20.3163 91.3271 20.181 91.1926 19.997C91.1872 19.9895 91.1817 19.982 91.1761 19.9744L87.212 12.6489H83.5821C81.8149 12.6489 81.1463 13.2349 81.1463 14.4558V20.3163H77.5642C77.2299 20.3163 77.0866 20.1698 77.0866 19.8279V1.66048C77.0866 0.683737 77.612 0.244202 78.997 0.244202H87.403C92.2746 0.244202 95.2358 1.56281 95.2358 6.44653C95.2358 10.207 93.4687 11.6721 91.2717 12.2582ZM81.1463 9.57211H87.9761C90.5552 9.57211 91.0806 8.54653 91.0806 6.49536C91.0806 4.49304 90.5075 3.46746 87.9761 3.46746H81.1463V9.57211Z" fill="#8C98A4"/>
</svg>
