<svg width="650" height="348" viewBox="0 0 650 348" fill="none" xmlns="http://www.w3.org/2000/svg">
<rect width="650" height="348" rx="16" fill="#1565D8"/>
<mask id="mask0_1_1642" style="mask-type:alpha" maskUnits="userSpaceOnUse" x="0" y="0" width="650" height="348">
<rect width="650" height="348" rx="16" fill="white"/>
</mask>
<g mask="url(#mask0_1_1642)">
<path opacity="0.15" fill-rule="evenodd" clip-rule="evenodd" d="M-244 388C83.5049 388 349 122.505 349 -205C349 -532.505 83.5049 -798 -244 -798C-571.505 -798 -837 -532.505 -837 -205C-837 122.505 -571.505 388 -244 388ZM-244 188C-461.048 188 -637 12.0479 -637 -205C-637 -422.048 -461.048 -598 -244 -598C-26.9521 -598 149 -422.048 149 -205C149 12.0479 -26.9521 188 -244 188Z" fill="url(#paint0_linear_1_1642)"/>
<path opacity="0.15" fill-rule="evenodd" clip-rule="evenodd" d="M851 1163C1178.5 1163 1444 897.505 1444 570C1444 242.495 1178.5 -23 851 -23C523.495 -23 258 242.495 258 570C258 897.505 523.495 1163 851 1163ZM851 963C633.952 963 458 787.048 458 570C458 352.952 633.952 177 851 177C1068.05 177 1244 352.952 1244 570C1244 787.048 1068.05 963 851 963Z" fill="url(#paint1_linear_1_1642)"/>
</g>
<defs>
<linearGradient id="paint0_linear_1_1642" x1="349" y1="-796.419" x2="-833.838" y2="-796.419" gradientUnits="userSpaceOnUse">
<stop stop-color="white" stop-opacity="0.01"/>
<stop offset="1" stop-color="white"/>
</linearGradient>
<linearGradient id="paint1_linear_1_1642" x1="1444" y1="-21.4192" x2="261.162" y2="-21.4192" gradientUnits="userSpaceOnUse">
<stop stop-color="white"/>
<stop offset="1" stop-color="white" stop-opacity="0.01"/>
</linearGradient>
</defs>
</svg>
