<svg width="1440" height="1343" viewBox="0 0 1440 1343" fill="none" xmlns="http://www.w3.org/2000/svg">
<rect x="-6" width="1446" height="1343" fill="white"/>
<mask id="mask0_1_523" style="mask-type:alpha" maskUnits="userSpaceOnUse" x="-6" y="0" width="1446" height="1343">
<rect x="-6" width="1446" height="1343" fill="white"/>
</mask>
<g mask="url(#mask0_1_523)">
<path fill-rule="evenodd" clip-rule="evenodd" d="M1440 175H0V0C240 53.3333 480 80 720 80C960 80 1200 53.3333 1440 0V175Z" fill="#1565D8"/>
<rect y="174" width="1440" height="1168" fill="#1565D8"/>
<path fill-rule="evenodd" clip-rule="evenodd" d="M1440 1343H0V1168C240 1221.33 480 1248 720 1248C960 1248 1200 1221.33 1440 1168V1343Z" fill="white"/>
<path opacity="0.15" fill-rule="evenodd" clip-rule="evenodd" d="M1597 1799C1924.5 1799 2190 1533.5 2190 1206C2190 878.495 1924.5 613 1597 613C1269.5 613 1004 878.495 1004 1206C1004 1533.5 1269.5 1799 1597 1799ZM1597 1599C1379.95 1599 1204 1423.05 1204 1206C1204 988.952 1379.95 813 1597 813C1814.05 813 1990 988.952 1990 1206C1990 1423.05 1814.05 1599 1597 1599Z" fill="url(#paint0_linear_1_523)"/>
<path opacity="0.15" fill-rule="evenodd" clip-rule="evenodd" d="M-50 510C277.505 510 543 244.505 543 -83C543 -410.505 277.505 -676 -50 -676C-377.505 -676 -643 -410.505 -643 -83C-643 244.505 -377.505 510 -50 510ZM-50 310C-267.048 310 -443 134.048 -443 -83C-443 -300.048 -267.048 -476 -50 -476C167.048 -476 343 -300.048 343 -83C343 134.048 167.048 310 -50 310Z" fill="url(#paint1_linear_1_523)"/>
</g>
<defs>
<linearGradient id="paint0_linear_1_523" x1="2190" y1="614.581" x2="1007.16" y2="614.581" gradientUnits="userSpaceOnUse">
<stop stop-color="white"/>
<stop offset="1" stop-color="white" stop-opacity="0.01"/>
</linearGradient>
<linearGradient id="paint1_linear_1_523" x1="543" y1="-674.419" x2="-639.838" y2="-674.419" gradientUnits="userSpaceOnUse">
<stop stop-color="white" stop-opacity="0.01"/>
<stop offset="1" stop-color="white"/>
</linearGradient>
</defs>
</svg>
