<svg width="1310" height="780" viewBox="0 0 1310 780" fill="none" xmlns="http://www.w3.org/2000/svg">
<path fill-rule="evenodd" clip-rule="evenodd" d="M1058 1008C1328.07 1008 1547 789.067 1547 519C1547 248.933 1328.07 30 1058 30C787.933 30 569 248.933 569 519C569 789.067 787.933 1008 1058 1008Z" fill="#1565D8"/>
<path opacity="0.15" fill-rule="evenodd" clip-rule="evenodd" d="M1407 1468C1734.5 1468 2000 1202.5 2000 875C2000 547.495 1734.5 282 1407 282C1079.5 282 814 547.495 814 875C814 1202.5 1079.5 1468 1407 1468ZM1407 1268C1189.95 1268 1014 1092.05 1014 875C1014 657.952 1189.95 482 1407 482C1624.05 482 1800 657.952 1800 875C1800 1092.05 1624.05 1268 1407 1268Z" fill="url(#paint0_linear_1_639)"/>
<path opacity="0.15" fill-rule="evenodd" clip-rule="evenodd" d="M593 417C920.505 417 1186 151.505 1186 -176C1186 -503.505 920.505 -769 593 -769C265.495 -769 0 -503.505 0 -176C0 151.505 265.495 417 593 417ZM593 217C375.952 217 200 41.0479 200 -176C200 -393.048 375.952 -569 593 -569C810.048 -569 986 -393.048 986 -176C986 41.0479 810.048 217 593 217Z" fill="url(#paint1_linear_1_639)"/>
<defs>
<linearGradient id="paint0_linear_1_639" x1="2000" y1="283.581" x2="817.162" y2="283.581" gradientUnits="userSpaceOnUse">
<stop stop-color="white"/>
<stop offset="1" stop-color="white" stop-opacity="0.01"/>
</linearGradient>
<linearGradient id="paint1_linear_1_639" x1="1186" y1="-767.419" x2="3.16162" y2="-767.419" gradientUnits="userSpaceOnUse">
<stop stop-color="white" stop-opacity="0.01"/>
<stop offset="1" stop-color="white"/>
</linearGradient>
</defs>
</svg>
