<svg width="1440" height="780" viewBox="0 0 1440 780" fill="none" xmlns="http://www.w3.org/2000/svg">
<rect width="1440" height="780" fill="url(#paint0_linear_1_636)"/>
<mask id="mask0_1_636" style="mask-type:alpha" maskUnits="userSpaceOnUse" x="0" y="0" width="1440" height="780">
<rect width="1440" height="780" fill="white"/>
</mask>
<g mask="url(#mask0_1_636)">
<path fill-rule="evenodd" clip-rule="evenodd" d="M1188 1008C1458.07 1008 1677 789.067 1677 519C1677 248.933 1458.07 30 1188 30C917.933 30 699 248.933 699 519C699 789.067 917.933 1008 1188 1008Z" fill="#1565D8"/>
<path opacity="0.15" fill-rule="evenodd" clip-rule="evenodd" d="M1537 1468C1864.5 1468 2130 1202.5 2130 875C2130 547.495 1864.5 282 1537 282C1209.5 282 944 547.495 944 875C944 1202.5 1209.5 1468 1537 1468ZM1537 1268C1319.95 1268 1144 1092.05 1144 875C1144 657.952 1319.95 482 1537 482C1754.05 482 1930 657.952 1930 875C1930 1092.05 1754.05 1268 1537 1268Z" fill="url(#paint1_linear_1_636)"/>
<path opacity="0.15" fill-rule="evenodd" clip-rule="evenodd" d="M723 417C1050.5 417 1316 151.505 1316 -176C1316 -503.505 1050.5 -769 723 -769C395.495 -769 130 -503.505 130 -176C130 151.505 395.495 417 723 417ZM723 217C505.952 217 330 41.0479 330 -176C330 -393.048 505.952 -569 723 -569C940.048 -569 1116 -393.048 1116 -176C1116 41.0479 940.048 217 723 217Z" fill="url(#paint2_linear_1_636)"/>
</g>
<defs>
<linearGradient id="paint0_linear_1_636" x1="0" y1="0" x2="0" y2="780" gradientUnits="userSpaceOnUse">
<stop stop-color="#FAFBFB" stop-opacity="0.01"/>
<stop offset="1" stop-color="#F8FBFF"/>
</linearGradient>
<linearGradient id="paint1_linear_1_636" x1="2130" y1="283.581" x2="947.162" y2="283.581" gradientUnits="userSpaceOnUse">
<stop stop-color="white"/>
<stop offset="1" stop-color="white" stop-opacity="0.01"/>
</linearGradient>
<linearGradient id="paint2_linear_1_636" x1="1316" y1="-767.419" x2="133.162" y2="-767.419" gradientUnits="userSpaceOnUse">
<stop stop-color="white" stop-opacity="0.01"/>
<stop offset="1" stop-color="white"/>
</linearGradient>
</defs>
</svg>
